<?xml version="1.0" encoding="utf-8"?>
<!-- Generator: Adobe Illustrator 23.0.1, SVG Export Plug-In . SVG Version: 6.00 Build 0)  -->
<svg version="1.1" id="Layer_1" xmlns="http://www.w3.org/2000/svg" xmlns:xlink="http://www.w3.org/1999/xlink" x="0px" y="0px"
	 viewBox="0 0 270 270" style="enable-background:new 0 0 270 270;" xml:space="preserve">
<style type="text/css">
	@keyframes spinlogo{
		0%{
			transform: scale(2) rotate(0);
		}
		100%{
			transform: scale(2) rotate(-1turn);
		}
	}
	.svg-global{
		transform-origin: center;
		/*transform: scale(2) rotate(45deg);*/
		animation: spinlogo 30s infinite linear;
	}
	.st0{fill:#2FB7EC;}
	.st1{fill:#2FB7EC;}
	.st2{fill:#2FB7EC;}
	.st3{fill:#2FB7EC;}
</style>
<g class="svg-global">
	<g>
		<path class="st0" d="M105.9,151.2c0-7.1,5.8-12.9,12.9-12.9s12.9,5.8,12.9,12.9v32.3c0,7.1-5.8,12.9-12.9,12.9
			s-12.9-5.8-12.9-12.9V151.2z"/>
	</g>
	<g>
		<path class="st1" d="M118.8,105.9c7.1,0,12.9,5.8,12.9,12.9s-5.8,12.9-12.9,12.9H86.5c-7.1,0-12.9-5.8-12.9-12.9
			s5.8-12.9,12.9-12.9H118.8z"/>
	</g>
	<g>
		<path class="st2" d="M164.1,118.8c0,7.1-5.8,12.9-12.9,12.9c-7.1,0-12.9-5.8-12.9-12.9V86.5c0-7.1,5.8-12.9,12.9-12.9
			c7.1,0,12.9,5.8,12.9,12.9V118.8z"/>
	</g>
	<g>
		<path class="st3" d="M151.2,164.1c-7.1,0-12.9-5.8-12.9-12.9c0-7.1,5.8-12.9,12.9-12.9h32.3c7.1,0,12.9,5.8,12.9,12.9
			c0,7.1-5.8,12.9-12.9,12.9H151.2z"/>
	</g>
</g>
</svg>
